<mxfile host="app.diagrams.net" modified="2023-07-29T07:20:44.264Z" agent="Mozilla/5.0 (Windows NT 10.0; Win64; x64) AppleWebKit/537.36 (KHTML, like Gecko) Chrome/114.0.0.0 Whale/3.21.192.18 Safari/537.36" version="21.6.6" etag="IZ4pkdbFBFPti7yOYUVT" type="github">
  <diagram name="페이지-1" id="jrpDbBRsTumBQRildwFn">
    <mxGraphModel>
      <root>
        <mxCell id="0" />
        <mxCell id="1" parent="0" />
      </root>
    </mxGraphModel>
  </diagram>
</mxfile>
